<svg xmlns="http://www.w3.org/2000/svg" viewBox="0 0 400 64" xml:space="preserve"><switch><g><g fill="#A2A7AE"><path d="M203.781 3.403h-37.674v5.302h37.674V3.403zM203.781 16.35h-37.674v5.306h37.674V16.35zM203.781 29.295h-37.674v5.302h37.674v-5.302zM203.781 42.238h-37.674v5.302h37.674v-5.302zM203.781 55.18h-37.674v5.304h37.674V55.18z"/></g><g fill="#0064A6"><path d="M28.242 13.459v46.994H17.133V13.459H2.266V3.544H43.11v9.915H28.242zM85.79 60.453 63.251 25.524v34.929H52.14V3.544h9.912l22.539 34.851V3.544h11.11v56.909H85.79zM144.056 54.456c-4.394 4.48-9.669 6.478-16.066 6.478-6.07 0-11.186-2.079-15.345-6.234-2.475-2.479-3.993-5.358-4.637-8.552-.634-3.198-.958-7.911-.958-14.15 0-6.231.324-10.948.958-14.147.644-3.276 2.162-6.072 4.637-8.55 4.159-4.159 9.274-6.233 15.345-6.233 12.953 0 19.906 8.311 21.42 18.221h-11.188c-1.358-5.515-4.711-8.309-10.232-8.309-2.955 0-5.352 1.039-7.109 3.035-2.084 2.636-2.718 4.718-2.718 15.983 0 11.19.479 13.434 2.718 16.066 1.678 1.999 4.074 2.957 7.109 2.957 3.281 0 5.917-1.038 7.916-3.193 1.678-1.919 2.558-4.479 2.558-7.595v-2.159h-8.013v-9.27h19.04v8.311c-.001 8.316-1.517 13.187-5.435 17.341z"/></g><g fill="#0064A6"><path d="M226.641 6.246v17.875h-3.135V6.246h-5.701V3.429h14.531v2.817h-5.695zM235.91 24.121V3.429h13.219v2.817h-10.08v6.043h8.605v2.792h-8.605v6.218h10.08v2.822H235.91zM260.115 24.288c-2.148 0-4.014-.781-5.436-2.206-2.025-2.033-2-4.328-2-8.309 0-3.981-.025-6.279 2-8.309 1.422-1.427 3.287-2.213 5.436-2.213 3.807 0 6.654 2.24 7.383 6.365h-3.201c-.486-2.091-1.885-3.543-4.182-3.543-1.217 0-2.326.461-3.049 1.247-1.02 1.104-1.248 2.296-1.248 6.452 0 4.154.229 5.345 1.248 6.452.723.779 1.832 1.243 3.049 1.243 2.297 0 3.717-1.449 4.217-3.541h3.166c-.697 4.125-3.639 6.362-7.383 6.362zM283.217 24.121v-9.04h-8.396v9.04h-3.141V3.429h3.141v8.831h8.396V3.429h3.143v20.692h-3.143zM304.461 24.121 294.9 9.558v14.563h-3.133V3.429h2.871l9.562 14.527V3.429h3.139v20.692h-2.878zM324.891 22.082c-1.428 1.425-3.252 2.206-5.469 2.206-2.203 0-4.004-.781-5.434-2.206-2.035-2.033-2.004-4.328-2.004-8.309 0-3.981-.031-6.279 2.004-8.309 1.43-1.427 3.23-2.213 5.434-2.213 2.217 0 4.041.786 5.469 2.213 2.037 2.029 1.971 4.327 1.971 8.309-.001 3.981.066 6.276-1.971 8.309zm-2.387-14.733c-.729-.783-1.863-1.274-3.082-1.274-1.215 0-2.352.491-3.078 1.274-1.018 1.104-1.217 2.269-1.217 6.425 0 4.154.199 5.319 1.217 6.42.727.784 1.863 1.275 3.078 1.275 1.219 0 2.354-.491 3.082-1.275 1.02-1.101 1.221-2.266 1.221-6.42 0-4.157-.202-5.322-1.221-6.425zM331.514 24.121V3.429h3.143v17.87h9.967v2.822h-13.11zM359.582 22.082c-1.42 1.425-3.254 2.206-5.463 2.206-2.215 0-4.014-.781-5.432-2.206-2.039-2.033-2.012-4.328-2.012-8.309 0-3.981-.027-6.279 2.012-8.309 1.418-1.427 3.217-2.213 5.432-2.213 2.209 0 4.043.786 5.463 2.213 2.035 2.029 1.977 4.327 1.977 8.309 0 3.981.058 6.276-1.977 8.309zm-2.381-14.733c-.725-.783-1.863-1.274-3.082-1.274-1.227 0-2.357.491-3.076 1.274-1.021 1.104-1.223 2.269-1.223 6.425 0 4.154.201 5.319 1.223 6.42.719.784 1.85 1.275 3.076 1.275 1.219 0 2.357-.491 3.082-1.275 1.02-1.101 1.219-2.266 1.219-6.42 0-4.157-.199-5.322-1.219-6.425zM378.586 21.936c-1.564 1.656-3.516 2.353-5.695 2.353-2.152 0-4.01-.781-5.438-2.206-2.025-2.033-2.002-4.328-2.002-8.309 0-3.981-.023-6.279 2.002-8.309 1.428-1.427 3.229-2.213 5.438-2.213 4.391 0 6.943 2.877 7.521 6.425h-3.158c-.525-2.268-2.041-3.603-4.363-3.603-1.221 0-2.326.491-3.049 1.274-1.023 1.104-1.26 2.269-1.26 6.425 0 4.154.236 5.345 1.26 6.452.723.779 1.828 1.243 3.049 1.243 1.367 0 2.553-.52 3.373-1.449.758-.871 1.045-1.917 1.045-3.254V15.6h-4.418v-2.673h7.553v3.167c-.001 2.676-.493 4.389-1.858 5.842zM391.545 15.601v8.521h-3.143v-8.521l-6.188-12.172h3.432l4.326 9.093 4.338-9.093h3.424l-6.189 12.172zM226.318 60.614c-2.141 0-4.01-.783-5.434-2.208-2.029-2.031-2-4.327-2-8.309 0-3.982-.029-6.28 2-8.312 1.424-1.425 3.293-2.211 5.434-2.211 3.809 0 6.66 2.241 7.383 6.365h-3.191c-.498-2.091-1.893-3.543-4.191-3.543-1.217 0-2.318.466-3.051 1.247-1.016 1.104-1.248 2.296-1.248 6.453 0 4.154.232 5.347 1.248 6.449.732.781 1.834 1.248 3.051 1.248 2.299 0 3.717-1.45 4.219-3.543h3.164c-.702 4.126-3.638 6.364-7.384 6.364zM250.91 58.406c-1.432 1.425-3.256 2.208-5.473 2.208-2.207 0-4.004-.783-5.436-2.208-2.033-2.031-2.002-4.327-2.002-8.309 0-3.982-.031-6.28 2.002-8.312 1.432-1.425 3.229-2.211 5.436-2.211 2.217 0 4.041.786 5.473 2.211 2.033 2.031 1.973 4.329 1.973 8.312 0 3.982.06 6.278-1.973 8.309zm-2.385-14.731c-.727-.781-1.867-1.277-3.088-1.277-1.217 0-2.352.496-3.072 1.277-1.023 1.103-1.221 2.266-1.221 6.423 0 4.154.197 5.316 1.221 6.422.721.786 1.855 1.275 3.072 1.275 1.221 0 2.361-.489 3.088-1.275 1.018-1.105 1.219-2.268 1.219-6.422 0-4.158-.201-5.321-1.219-6.423zM271.107 60.441l-9.568-14.559v14.559h-3.141V39.753h2.881l9.559 14.528V39.753h3.137v20.688h-2.868zM285.75 60.614c-3.109 0-5.352-.724-7.324-2.729l2.092-2.063c1.512 1.507 3.164 1.974 5.287 1.974 2.703 0 4.271-1.16 4.271-3.164 0-.905-.26-1.659-.811-2.155-.525-.489-1.045-.694-2.27-.869l-2.441-.349c-1.688-.234-3.021-.813-3.92-1.654-1.021-.961-1.51-2.269-1.51-3.952 0-3.605 2.611-6.076 6.908-6.076 2.732 0 4.652.699 6.424 2.358l-2 1.971c-1.279-1.218-2.76-1.592-4.508-1.592-2.441 0-3.779 1.39-3.779 3.224 0 .754.238 1.422.785 1.916.521.462 1.365.812 2.328.961l2.357.345c1.912.292 2.994.758 3.857 1.542 1.137.985 1.688 2.47 1.688 4.243.002 3.804-3.108 6.069-7.434 6.069zM305.363 60.614c-4.217 0-7.41-2.875-7.41-7.15V39.753h3.139v13.568c0 2.76 1.678 4.474 4.271 4.474 2.58 0 4.301-1.714 4.301-4.474V39.753h3.133v13.711c0 4.275-3.219 7.15-7.434 7.15zM318.76 60.441V39.753h3.137v17.869h9.965v2.819H318.76zM340.984 42.572v17.869h-3.141V42.572h-5.693v-2.819h14.525v2.819h-5.691zM351.123 60.441V39.753h3.139v20.688h-3.139zM373.234 60.441l-9.555-14.559v14.559h-3.141V39.753h2.883l9.561 14.528V39.753h3.137v20.688h-2.885zM394.775 58.262c-1.568 1.656-3.516 2.353-5.695 2.353-2.152 0-4.016-.783-5.438-2.208-2.037-2.031-2.01-4.327-2.01-8.309 0-3.982-.027-6.28 2.01-8.312 1.422-1.425 3.221-2.211 5.438-2.211 4.381 0 6.943 2.877 7.521 6.425h-3.166c-.523-2.27-2.031-3.603-4.355-3.603-1.227 0-2.33.496-3.051 1.277-1.018 1.103-1.25 2.266-1.25 6.423 0 4.154.232 5.347 1.25 6.449.721.781 1.824 1.248 3.051 1.248 1.365 0 2.557-.518 3.367-1.45.76-.875 1.043-1.921 1.043-3.254v-1.162h-4.41v-2.677h7.551v3.173c0 2.669-.494 4.385-1.856 5.838z"/></g></g></switch></svg>